# xmcd CD database file
# Copyright (C) 1996 Ti Kan
#
# Track frame offsets:
# 	150
# 	13965
# 	31897
# 	47365
# 	64870
# 	79580
# 	96180
# 	110562
# 	137352
# 	157217
# 	172652
#
# Disc length: 2577 seconds
#
# Revision: 2
# Processed by: cddbd v1.4b41PL1 Copyright (c) Steve Scherf et al.
# Submitted via: DiscPlay 3.4.1
#
DISCID=820a0f0b
DTITLE=The Buddy Blue Band - Dive Bar Casanovas
DYEAR=1900
DGENRE=
TTITLE0=Right Cross, Left Hook
TTITLE1=I Get A Chill
TTITLE2=Baby's Got the Blues
TTITLE3=Kill the Dutchman
TTITLE4=The Boys From Syracuse
TTITLE5=Check That Chicken
TTITLE6=It Should Have Been Me
TTITLE7=Nobody
TTITLE8=Frim Fram Froo
TTITLE9=Bump Miss Suzie
TTITLE10=Going Downtown
EXTD=
EXTT0=
EXTT1=
EXTT2=
EXTT3=
EXTT4=
EXTT5=
EXTT6=
EXTT7=
EXTT8=
EXTT9=
EXTT10=
PLAYORDER=
